<svg width="16" height="17" viewBox="0 0 16 17" fill="none" xmlns="http://www.w3.org/2000/svg">
<path d="M8.49936 16.0003C8.36675 16.0003 8.23958 15.9476 8.14581 15.8539C8.05204 15.7601 7.99936 15.6329 7.99936 15.5003V8.00032H0.499363C0.385643 8.00017 0.27537 7.96127 0.186737 7.89002C0.0981034 7.81877 0.0364058 7.71944 0.0118228 7.6084C-0.0127601 7.49737 0.00124033 7.38128 0.0515144 7.27927C0.101788 7.17727 0.185332 7.09545 0.288363 7.04732L15.2884 0.0473182C15.3814 0.00366577 15.4857 -0.0102381 15.587 0.00750014C15.6882 0.0252384 15.7815 0.0737566 15.8542 0.146447C15.9269 0.219137 15.9754 0.312467 15.9932 0.413725C16.0109 0.514983 15.997 0.619247 15.9534 0.712318L8.95336 15.7123C8.9132 15.7986 8.84923 15.8716 8.76898 15.9228C8.68874 15.974 8.59555 16.0013 8.50036 16.0013L8.49936 16.0003ZM2.75336 7.00032H8.49936C8.63197 7.00032 8.75915 7.053 8.85292 7.14676C8.94668 7.24053 8.99936 7.36771 8.99936 7.50032V13.2463L14.4644 1.53432L2.75236 6.99932L2.75336 7.00032Z" fill="#F8F8F8"/>
</svg>
