<svg width="25" height="20" viewBox="0 0 25 20" fill="none" xmlns="http://www.w3.org/2000/svg">
<g clip-path="url(#clip0_3_5)">
<path d="M14.9648 18.125H13.4375V16.8059C14.2422 16.6955 14.9996 16.4386 15.691 16.0746L14.0012 14.75C13.4285 14.9316 12.8183 15.0304 12.1777 14.99C9.59764 14.8281 7.46483 12.3867 7.46483 9.80078V9.65324L5.58983 8.18359V9.6918C5.58983 13.1938 8.08865 16.3168 11.4922 16.7895V18.1234H9.92967C9.23944 18.1234 8.71483 18.6832 8.71483 19.3383C8.71483 19.7188 9.03123 20 9.33983 20H15.5547C15.8999 20 16.1445 19.7202 16.1445 19.4102C16.2148 18.6836 15.6914 18.125 14.9648 18.125ZM24.6406 18.3242L18.418 13.4453C19.0183 12.432 19.3762 11.2613 19.3762 9.99961V8.4375C19.3762 7.91992 18.9562 7.5 18.4738 7.5C17.9562 7.5 17.5363 7.91992 17.5363 8.4375V9.96484C17.5363 10.7898 17.3192 11.5574 16.9594 12.2398L15.9543 11.4523C16.1587 10.9961 16.286 10.4984 16.286 9.96484H14.0567L12.711 8.91016C12.8249 8.79086 12.9833 8.71492 13.161 8.71492H16.2509V7.5H13.0898C12.7447 7.5 12.5 7.22016 12.5 6.91016C12.5 6.60016 12.7798 6.28516 13.0898 6.28516L16.1797 6.2852V5L13.0898 4.99992C12.7447 4.99992 12.5 4.72012 12.5 4.41008C12.5 4.10004 12.7798 3.82023 13.0898 3.82023H16.2148C16.2148 1.71086 14.4742 0.00890625 12.3504 0.0721875C10.332 0.0630469 8.71483 1.85352 8.71483 3.90625V5.86836L1.516 0.199648C1.3513 0.070388 1.14802 9.09095e-05 0.938654 0C0.660529 0 0.384357 0.123359 0.200021 0.358945C-0.119822 0.766797 -0.0488069 1.35625 0.358928 1.67539L23.4488 19.7652C23.8589 20.0857 24.4476 20.0124 24.7648 19.6059C25.1211 19.2344 25.0469 18.6445 24.6406 18.3242Z" fill="#F8F8F8"/>
</g>
<defs>
<clipPath id="clip0_3_5">
<rect width="25" height="20" fill="white"/>
</clipPath>
</defs>
</svg>
